<mxfile host="app.diagrams.net" modified="2022-10-18T02:35:15.583Z" agent="5.0 (Macintosh; Intel Mac OS X 10_15_7) AppleWebKit/537.36 (KHTML, like Gecko) Chrome/106.0.0.0 Safari/537.36" etag="r0p8MMf6UTsvCflESXW3" version="20.4.1" type="github">
  <diagram id="YFIC36hL58d4NH2TLQrH" name="第 1 页">
    <mxGraphModel dx="1182" dy="-552" grid="1" gridSize="10" guides="1" tooltips="1" connect="1" arrows="1" fold="1" page="1" pageScale="1" pageWidth="827" pageHeight="1169" math="0" shadow="0">
      <root>
        <mxCell id="0" />
        <mxCell id="1" parent="0" />
        <mxCell id="2hXYtirAHLa2PWoCWjDj-1" value="" style="rounded=0;whiteSpace=wrap;html=1;" vertex="1" parent="1">
          <mxGeometry x="350" y="1210" width="120" height="60" as="geometry" />
        </mxCell>
      </root>
    </mxGraphModel>
  </diagram>
</mxfile>
